Normalized EMG Linear Envelopes
nRows=38
nColumns=17

endheader
time	        VM	        VL	        RF	       GRA	        TA	   ADDLONG	   SEMIMEM	      BFLH	        GM	        GL	       TFL	   GLUTMAX	   GLUTMED	      PIRI	    OBTINT	        QF	
1.9175	  0.018606	  0.001118	  0.001120	  0.249926	  0.165881	  0.121995	  0.608424	  0.476314	  0.205714	  0.152939	  0.020834	  0.408970	  0.285679	  0.352405	  0.722602	  0.796731	
1.918	  0.018657	  0.001023	  0.001075	  0.250139	  0.167065	  0.120802	  0.612909	  0.478844	  0.207000	  0.153463	  0.020836	  0.410643	  0.285026	  0.351295	  0.720628	  0.796065	
1.9185	  0.018709	  0.000927	  0.001035	  0.250371	  0.168295	  0.119622	  0.617370	  0.481387	  0.208301	  0.153975	  0.020840	  0.412304	  0.284379	  0.350160	  0.718615	  0.795280	
1.919	  0.018761	  0.000831	  0.000999	  0.250622	  0.169568	  0.118455	  0.621804	  0.483945	  0.209617	  0.154476	  0.020847	  0.413955	  0.283738	  0.349000	  0.716565	  0.794381	
1.9195	  0.018816	  0.000734	  0.000967	  0.250892	  0.170887	  0.117302	  0.626211	  0.486518	  0.210949	  0.154965	  0.020856	  0.415595	  0.283105	  0.347815	  0.714479	  0.793374	
1.92	  0.018872	  0.000637	  0.000940	  0.251180	  0.172249	  0.116162	  0.630589	  0.489104	  0.212295	  0.155442	  0.020868	  0.417225	  0.282479	  0.346607	  0.712359	  0.792263	
1.9205	  0.018929	  0.000539	  0.000917	  0.251488	  0.173655	  0.115036	  0.634937	  0.491705	  0.213655	  0.155907	  0.020882	  0.418846	  0.281862	  0.345374	  0.710206	  0.791054	
1.921	  0.018988	  0.000441	  0.000898	  0.251816	  0.175104	  0.113925	  0.639254	  0.494320	  0.215030	  0.156360	  0.020898	  0.420456	  0.281253	  0.344118	  0.708022	  0.789753	
1.9215	  0.019049	  0.000343	  0.000882	  0.252163	  0.176595	  0.112830	  0.643537	  0.496948	  0.216418	  0.156800	  0.020917	  0.422058	  0.280655	  0.342837	  0.705807	  0.788364	
1.922	  0.019112	  0.000245	  0.000870	  0.252530	  0.178130	  0.111750	  0.647786	  0.499590	  0.217818	  0.157227	  0.020938	  0.423650	  0.280067	  0.341532	  0.703562	  0.786893	
1.9225	  0.019177	  0.000147	  0.000862	  0.252916	  0.179706	  0.110685	  0.651998	  0.502245	  0.219231	  0.157641	  0.020961	  0.425233	  0.279489	  0.340204	  0.701289	  0.785346	
1.923	  0.019245	  0.000048	  0.000857	  0.253323	  0.181323	  0.109638	  0.656173	  0.504912	  0.220656	  0.158042	  0.020986	  0.426807	  0.278923	  0.338851	  0.698988	  0.783726	
1.9235	  0.019315	  0.000000	  0.000854	  0.253750	  0.182982	  0.108607	  0.660308	  0.507593	  0.222093	  0.158430	  0.021013	  0.428372	  0.278369	  0.337476	  0.696660	  0.782040	
1.924	  0.019388	  0.000000	  0.000855	  0.254196	  0.184680	  0.107592	  0.664403	  0.510286	  0.223540	  0.158805	  0.021043	  0.429930	  0.277828	  0.336077	  0.694306	  0.780293	
1.9245	  0.019465	  0.000000	  0.000859	  0.254663	  0.186418	  0.106596	  0.668456	  0.512992	  0.224998	  0.159166	  0.021074	  0.431480	  0.277299	  0.334657	  0.691926	  0.778488	
1.925	  0.019544	  0.000000	  0.000866	  0.255149	  0.188195	  0.105616	  0.672465	  0.515711	  0.226467	  0.159515	  0.021107	  0.433023	  0.276783	  0.333217	  0.689521	  0.776632	
1.9255	  0.019628	  0.000000	  0.000875	  0.255655	  0.190010	  0.104655	  0.676428	  0.518441	  0.227944	  0.159851	  0.021142	  0.434560	  0.276281	  0.331756	  0.687091	  0.774728	
1.926	  0.019716	  0.000000	  0.000886	  0.256180	  0.191863	  0.103712	  0.680345	  0.521183	  0.229431	  0.160173	  0.021179	  0.436093	  0.275793	  0.330277	  0.684638	  0.772784	
1.9265	  0.019808	  0.000000	  0.000900	  0.256724	  0.193753	  0.102787	  0.684213	  0.523937	  0.230925	  0.160483	  0.021218	  0.437621	  0.275319	  0.328780	  0.682162	  0.770803	
1.927	  0.019905	  0.000000	  0.000916	  0.257287	  0.195678	  0.101880	  0.688031	  0.526703	  0.232428	  0.160781	  0.021259	  0.439146	  0.274859	  0.327266	  0.679664	  0.768790	
1.9275	  0.020008	  0.000000	  0.000935	  0.257868	  0.197640	  0.100992	  0.691798	  0.529480	  0.233937	  0.161065	  0.021302	  0.440669	  0.274415	  0.325738	  0.677147	  0.766752	
1.928	  0.020116	  0.000000	  0.000955	  0.258468	  0.199636	  0.100123	  0.695511	  0.532269	  0.235452	  0.161337	  0.021346	  0.442190	  0.273986	  0.324195	  0.674611	  0.764692	
1.9285	  0.020231	  0.000000	  0.000977	  0.259087	  0.201666	  0.099272	  0.699171	  0.535069	  0.236974	  0.161596	  0.021392	  0.443712	  0.273573	  0.322639	  0.672060	  0.762615	
1.929	  0.020353	  0.000000	  0.001002	  0.259723	  0.203731	  0.098441	  0.702774	  0.537882	  0.238500	  0.161841	  0.021440	  0.445234	  0.273176	  0.321072	  0.669495	  0.760527	
1.9295	  0.020482	  0.000000	  0.001028	  0.260376	  0.205828	  0.097628	  0.706322	  0.540708	  0.240031	  0.162074	  0.021490	  0.446759	  0.272796	  0.319494	  0.666917	  0.758432	
1.93	  0.020620	  0.000000	  0.001056	  0.261047	  0.207957	  0.096834	  0.709812	  0.543546	  0.241566	  0.162295	  0.021542	  0.448287	  0.272433	  0.317907	  0.664330	  0.756335	
1.9305	  0.020767	  0.000000	  0.001085	  0.261734	  0.210119	  0.096058	  0.713244	  0.546399	  0.243105	  0.162502	  0.021595	  0.449819	  0.272088	  0.316312	  0.661736	  0.754239	
1.931	  0.020923	  0.000000	  0.001117	  0.262437	  0.212312	  0.095302	  0.716617	  0.549264	  0.244647	  0.162696	  0.021650	  0.451357	  0.271761	  0.314711	  0.659135	  0.752151	
1.9315	  0.021089	  0.000000	  0.001150	  0.263155	  0.214535	  0.094565	  0.719931	  0.552144	  0.246192	  0.162878	  0.021708	  0.452901	  0.271451	  0.313103	  0.656531	  0.750072	
1.932	  0.021267	  0.000000	  0.001185	  0.263888	  0.216789	  0.093846	  0.723185	  0.555037	  0.247739	  0.163047	  0.021766	  0.454453	  0.271160	  0.311491	  0.653925	  0.748009	
1.9325	  0.021456	  0.000000	  0.001221	  0.264636	  0.219072	  0.093147	  0.726380	  0.557945	  0.249288	  0.163204	  0.021827	  0.456013	  0.270888	  0.309875	  0.651320	  0.745965	
1.933	  0.021657	  0.000000	  0.001259	  0.265397	  0.221384	  0.092466	  0.729515	  0.560866	  0.250838	  0.163349	  0.021890	  0.457582	  0.270634	  0.308256	  0.648719	  0.743944	
1.9335	  0.021872	  0.000000	  0.001299	  0.266172	  0.223726	  0.091804	  0.732590	  0.563802	  0.252390	  0.163481	  0.021955	  0.459161	  0.270398	  0.306636	  0.646124	  0.741952	
1.934	  0.022100	  0.000000	  0.001340	  0.266959	  0.226096	  0.091162	  0.735605	  0.566753	  0.253942	  0.163601	  0.022021	  0.460751	  0.270181	  0.305014	  0.643538	  0.739991	
1.9345	  0.022344	  0.000000	  0.001382	  0.267759	  0.228494	  0.090538	  0.738560	  0.569719	  0.255495	  0.163708	  0.022090	  0.462352	  0.269982	  0.303393	  0.640965	  0.738068	
1.935	  0.022602	  0.000000	  0.001426	  0.268569	  0.230920	  0.089933	  0.741455	  0.572700	  0.257047	  0.163803	  0.022161	  0.463966	  0.269802	  0.301773	  0.638405	  0.736186	
1.9355	  0.022877	  0.000000	  0.001472	  0.269390	  0.233373	  0.089346	  0.744289	  0.575697	  0.258598	  0.163885	  0.022234	  0.465594	  0.269639	  0.300155	  0.635862	  0.734349	
1.936	  0.023169	  0.000000	  0.001519	  0.270222	  0.235853	  0.088779	  0.747063	  0.578711	  0.260148	  0.163954	  0.022309	  0.467236	  0.269493	  0.298540	  0.633339	  0.732561	
